<svg xmlns="http://www.w3.org/2000/svg" viewBox="0 0 256 256" role="img" aria-labelledby="title desc">
    <title id="title">Robot icon</title>
    <desc id="desc">A friendly robot head icon with antenna, blue screen face, and circuit details.</desc>
    <defs>
        <linearGradient id="bodyGradient" x1="48" y1="56" x2="208" y2="224" gradientUnits="userSpaceOnUse">
            <stop offset="0" stop-color="#f8fafc" />
            <stop offset="1" stop-color="#cbd5e1" />
        </linearGradient>
        <linearGradient id="screenGradient" x1="72" y1="92" x2="184" y2="172" gradientUnits="userSpaceOnUse">
            <stop offset="0" stop-color="#38bdf8" />
            <stop offset="1" stop-color="#2563eb" />
        </linearGradient>
    </defs>

    <rect width="256" height="256" rx="48" fill="#111827" />
    <circle cx="128" cy="45" r="12" fill="#22c55e" />
    <path d="M128 57v23" fill="none" stroke="#e5e7eb" stroke-width="10" stroke-linecap="round" />

    <rect x="52" y="76" width="152" height="128" rx="34" fill="url(#bodyGradient)" />
    <rect x="68" y="96" width="120" height="76" rx="24" fill="url(#screenGradient)" />

    <circle cx="104" cy="132" r="10" fill="#f8fafc" />
    <circle cx="152" cy="132" r="10" fill="#f8fafc" />
    <path d="M107 153c11 9 31 9 42 0" fill="none" stroke="#f8fafc" stroke-width="8" stroke-linecap="round" />

    <circle cx="45" cy="132" r="13" fill="#94a3b8" />
    <circle cx="211" cy="132" r="13" fill="#94a3b8" />
    <path d="M52 132h16M188 132h16" fill="none" stroke="#94a3b8" stroke-width="10" stroke-linecap="round" />

    <path d="M92 193h72" fill="none" stroke="#64748b" stroke-width="8" stroke-linecap="round" />
    <circle cx="88" cy="193" r="5" fill="#2563eb" />
    <circle cx="168" cy="193" r="5" fill="#22c55e" />
</svg>
